<svg width="61" height="32" viewBox="0 0 61 32" fill="none" xmlns="http://www.w3.org/2000/svg">
<path d="M7.09375 0.796875H7.57812C8.05729 0.786458 9.04688 0.755208 10.5469 0.703125C12.0469 0.640625 13.1667 0.598958 13.9062 0.578125C14.6562 0.557292 15.5938 0.552083 16.7188 0.5625C17.8542 0.5625 18.8385 0.59375 19.6719 0.65625C19.7552 0.65625 19.7969 0.703125 19.7969 0.796875C19.7865 1.30729 19.7812 1.96875 19.7812 2.78125C19.7917 3.58333 19.7917 4.28125 19.7812 4.875C19.7708 5.45833 19.7448 6.04688 19.7031 6.64062C19.7031 6.69271 19.6979 6.80208 19.6875 6.96875C19.6875 7.13542 19.6823 7.26562 19.6719 7.35938C19.6615 7.45312 19.6458 7.5625 19.625 7.6875C19.6042 7.8125 19.5729 7.90625 19.5312 7.96875C19.4896 8.02083 19.4323 8.05208 19.3594 8.0625C19.0365 8.10417 18.651 8.125 18.2031 8.125C17.1406 8.16667 15.4427 8.1875 13.1094 8.1875C13.0677 11.7292 13.0469 14.5208 13.0469 16.5625C13.0469 17.9896 13.0781 19.6094 13.1406 21.4219C13.2031 23.224 13.2448 24.7865 13.2656 26.1094C13.2656 26.1823 13.2656 26.2917 13.2656 26.4375C13.276 26.5833 13.2812 26.7135 13.2812 26.8281C13.2917 26.9427 13.2917 27.0625 13.2812 27.1875C13.2812 27.3021 13.2656 27.3906 13.2344 27.4531C13.2031 27.5156 13.1615 27.5469 13.1094 27.5469C12.7552 27.5469 12.4583 27.5365 12.2188 27.5156C11.6146 27.474 11.1458 27.4531 10.8125 27.4531C10.6042 27.4531 9.60938 27.4844 7.82812 27.5469H7.1875C7.11458 27.5469 7.05729 27.5156 7.01562 27.4531C6.98438 27.3906 6.96354 27.3021 6.95312 27.1875C6.94271 27.0625 6.9375 26.9479 6.9375 26.8438C6.9375 26.7396 6.94271 26.6146 6.95312 26.4688C6.96354 26.3229 6.96875 26.224 6.96875 26.1719C6.96875 24.1615 6.9375 22.2969 6.875 20.5781C6.82292 18.849 6.80208 17.2344 6.8125 15.7344C6.82292 15.2448 6.82812 14.6094 6.82812 13.8281C6.82812 13.0469 6.82292 12.0833 6.8125 10.9375C6.8125 9.78125 6.8125 8.86458 6.8125 8.1875C4.80208 8.1875 3.01042 8.22917 1.4375 8.3125H0.703125C0.484375 8.3125 0.375 7.88021 0.375 7.01562C0.375 6.96354 0.375 6.92708 0.375 6.90625C0.375 4.69792 0.354167 3.22396 0.3125 2.48438C0.25 1.35938 0.380208 0.796875 0.703125 0.796875C0.807292 0.796875 1.06771 0.796875 1.48438 0.796875C1.91146 0.786458 2.15104 0.786458 2.20312 0.796875C3.15104 0.838542 4.76042 0.838542 7.03125 0.796875H7.09375ZM23.4688 16.8906H29.375C29.5938 16.8906 29.6615 18.2969 29.5781 21.1094C30.6198 21.1406 31.6094 21.1302 32.5469 21.0781V18.4219C32.5469 18.3698 32.5417 18.2448 32.5312 18.0469C32.5208 17.849 32.5156 17.6875 32.5156 17.5625C32.526 17.4271 32.5365 17.2812 32.5469 17.125C32.5677 16.9583 32.6042 16.8333 32.6562 16.75C32.7083 16.6667 32.7812 16.625 32.875 16.625C33.2083 16.625 33.5312 16.6198 33.8438 16.6094C34.1562 16.599 34.4167 16.5938 34.625 16.5938C36.2708 16.6354 37.401 16.6458 38.0156 16.625C38.5573 16.5833 38.8281 16.7448 38.8281 17.1094V17.9688C38.7448 21.4271 38.6979 23.5365 38.6875 24.2969C38.6875 25.0469 38.724 27.1771 38.7969 30.6875C38.7969 30.8229 38.7604 30.9323 38.6875 31.0156C38.625 31.099 38.5052 31.1562 38.3281 31.1875C38.1615 31.2188 38.0208 31.2344 37.9062 31.2344C37.7917 31.2448 37.5938 31.25 37.3125 31.25H33.6719C33.1302 31.25 32.8073 31.1979 32.7031 31.0938C32.599 30.9896 32.5469 30.7344 32.5469 30.3281V26.6875C31.1927 26.7292 30.1719 26.7708 29.4844 26.8125V30.8125C29.4844 30.9375 29.3177 31.0312 28.9844 31.0938C28.651 31.1562 28.2135 31.1927 27.6719 31.2031C27.1406 31.2135 26.625 31.2135 26.125 31.2031C25.6354 31.1927 25.1406 31.1771 24.6406 31.1562C24.151 31.1354 23.8646 31.125 23.7812 31.125C23.6875 31.125 23.6094 31.0417 23.5469 30.875C23.4948 30.7083 23.4583 30.4792 23.4375 30.1875C23.4167 29.8854 23.4062 29.6042 23.4062 29.3438C23.4062 29.0833 23.4115 28.776 23.4219 28.4219C23.4323 28.0677 23.4375 27.8385 23.4375 27.7344C23.4583 26.0052 23.4531 24.4167 23.4219 22.9688C23.3906 21.5104 23.3802 19.8438 23.3906 17.9688C23.3906 17.9167 23.3854 17.8385 23.375 17.7344C23.375 17.6198 23.375 17.5208 23.375 17.4375C23.375 17.3438 23.375 17.2552 23.375 17.1719C23.375 17.0781 23.3802 17.0104 23.3906 16.9688C23.4115 16.9167 23.4375 16.8906 23.4688 16.8906ZM37.7969 9.625C38.0469 9.59375 38.2292 9.96354 38.3438 10.7344C38.4583 11.4948 38.4635 12.3021 38.3594 13.1562C38.2656 14.0104 38.0781 14.5208 37.7969 14.6875C37.2969 15 36.4167 15.2292 35.1562 15.375C33.9062 15.5104 32.7448 15.5729 31.6719 15.5625C30.599 15.5521 29.6458 15.5156 28.8125 15.4531C24.5208 15.1094 22.375 12.8333 22.375 8.625C22.375 7.30208 22.526 6.16146 22.8281 5.20312C23.1302 4.24479 23.6302 3.40625 24.3281 2.6875C25.026 1.95833 25.9844 1.41146 27.2031 1.04688C28.4323 0.682292 29.9271 0.5 31.6875 0.5C34.0938 0.5 36.026 0.713542 37.4844 1.14062C37.6198 1.18229 37.7292 1.26562 37.8125 1.39062C37.9062 1.51562 37.9531 1.63542 37.9531 1.75C37.9531 4.88542 37.625 6.43229 36.9688 6.39062C34.1354 6.24479 32.276 6.20833 31.3906 6.28125C29.8073 6.39583 28.8906 6.82292 28.6406 7.5625C28.5781 7.72917 28.5469 7.90625 28.5469 8.09375C28.5469 8.53125 28.6927 8.89583 28.9844 9.1875C29.276 9.47917 29.6979 9.6875 30.25 9.8125C30.8021 9.92708 31.3542 10.0104 31.9062 10.0625C32.4688 10.1042 33.1302 10.099 33.8906 10.0469C34.6615 9.98438 35.276 9.93229 35.7344 9.89062C36.1927 9.83854 36.724 9.77083 37.3281 9.6875C37.5469 9.65625 37.7031 9.63542 37.7969 9.625ZM41.5 24.0312C41.4375 23.9479 41.401 23.8177 41.3906 23.6406C41.3906 23.4635 41.401 23.3073 41.4219 23.1719C41.4427 23.026 41.474 22.8438 41.5156 22.625C41.5677 22.3958 41.5938 22.2656 41.5938 22.2344C43.4062 13.4323 44.6458 7.4375 45.3125 4.25C45.3646 4.02083 45.4323 3.77083 45.5156 3.5C45.599 3.21875 45.7135 2.86458 45.8594 2.4375C46.0156 2.01042 46.1979 1.65625 46.4062 1.375C46.6146 1.08333 46.8229 0.921875 47.0312 0.890625C49.4479 0.609375 51.2865 0.46875 52.5469 0.46875C52.8594 0.46875 53.1667 0.739583 53.4688 1.28125C53.7812 1.82292 54.0156 2.42708 54.1719 3.09375C54.3073 3.67708 54.8646 5.95833 55.8438 9.9375C56.8229 13.9062 57.6406 17.3438 58.2969 20.25C58.9531 23.1562 59.6146 26.2604 60.2812 29.5625C60.3125 29.7396 60.3333 29.901 60.3438 30.0469C60.3542 30.1927 60.3385 30.3177 60.2969 30.4219C60.2552 30.5156 60.2188 30.599 60.1875 30.6719C60.1562 30.7344 60.0885 30.7865 59.9844 30.8281C59.8906 30.8698 59.8125 30.9062 59.75 30.9375C59.6979 30.9583 59.599 30.974 59.4531 30.9844C59.3073 30.9948 59.2031 31 59.1406 31C59.0781 31 58.9583 31 58.7812 31H54.5938C54.4479 31 54.3177 30.9688 54.2031 30.9062C54.0885 30.8333 53.9844 30.7292 53.8906 30.5938C53.8073 30.4583 53.7344 30.3281 53.6719 30.2031C53.6094 30.0677 53.5521 29.9062 53.5 29.7188C53.4583 29.5208 53.4271 29.3646 53.4062 29.25C53.3854 29.1354 53.3594 28.9948 53.3281 28.8281C53.2969 28.651 53.2812 28.5521 53.2812 28.5312C53.2292 28.25 53.0781 27.1406 52.8281 25.2031C52.5781 23.2552 52.4062 22.0521 52.3125 21.5938C52.2812 21.4375 52.2083 21.3229 52.0938 21.25C51.9896 21.1771 51.8802 21.1406 51.7656 21.1406C51.6615 21.1406 51.4948 21.151 51.2656 21.1719C51.0469 21.1823 50.875 21.1823 50.75 21.1719H48.9219C48.4635 21.1719 48.1979 21.1823 48.125 21.2031C48.0833 21.5677 48.0573 21.9271 48.0469 22.2812C48.0469 22.6354 48.0312 22.875 48 23C47.9583 23.1979 47.9167 23.3542 47.875 23.4688C47.8438 23.5729 47.776 23.6875 47.6719 23.8125C47.5677 23.9375 47.4427 24.0104 47.2969 24.0312C47.1094 24.0625 46.9427 24.0885 46.7969 24.1094C46.6615 24.1198 46.5365 24.1354 46.4219 24.1562C46.3073 24.1667 46.1719 24.1771 46.0156 24.1875C45.8594 24.1979 45.7396 24.2083 45.6562 24.2188C45.5729 24.2188 45.4167 24.2188 45.1875 24.2188C44.9688 24.2188 44.8021 24.2188 44.6875 24.2188C44.5729 24.2188 44.3333 24.2188 43.9688 24.2188C43.6146 24.2188 43.3281 24.2188 43.1094 24.2188C43.0052 24.2188 42.8698 24.224 42.7031 24.2344C42.5365 24.2344 42.401 24.2396 42.2969 24.25C42.1927 24.25 42.0833 24.2448 41.9688 24.2344C41.8542 24.224 41.7552 24.2031 41.6719 24.1719C41.599 24.1406 41.5417 24.0938 41.5 24.0312ZM49.2188 15.0938C49.4375 15.1146 50.0417 15.125 51.0312 15.125C51.125 15.125 51.1979 15.1042 51.25 15.0625C51.3125 15.0104 51.3438 14.9271 51.3438 14.8125C51.3438 14.6979 51.3385 14.6094 51.3281 14.5469C51.3281 14.474 51.3125 14.3646 51.2812 14.2188C51.25 14.0625 51.2344 13.9792 51.2344 13.9688C51.1823 13.6771 51.0938 13.2396 50.9688 12.6562C50.8438 12.0729 50.75 11.5833 50.6875 11.1875C50.5938 10.6146 50.4115 10.3281 50.1406 10.3281C50.0885 10.3281 50.0365 10.3385 49.9844 10.3594C49.9427 10.3802 49.9062 10.4167 49.875 10.4688C49.8438 10.5208 49.8125 10.5729 49.7812 10.625C49.7604 10.6667 49.7396 10.7292 49.7188 10.8125C49.6979 10.8854 49.6823 10.9479 49.6719 11C49.6615 11.0521 49.6458 11.125 49.625 11.2188C49.6146 11.3125 49.6042 11.3802 49.5938 11.4219C49.5312 11.7448 49.4375 12.1875 49.3125 12.75C49.1979 13.3125 49.1094 13.776 49.0469 14.1406C48.9219 14.7552 48.9792 15.0729 49.2188 15.0938Z" fill="#0F6F2B"/>
</svg>
